<?xml version="1.0" encoding="utf-8"?>
<!-- Generator: Adobe Illustrator 13.0.0, SVG Export Plug-In . SVG Version: 6.00 Build 14948)  -->
<!DOCTYPE svg PUBLIC "-//W3C//DTD SVG 1.1//EN" "http://www.w3.org/Graphics/SVG/1.1/DTD/svg11.dtd">
<svg version="1.1" id="Layer_1" xmlns="http://www.w3.org/2000/svg" xmlns:xlink="http://www.w3.org/1999/xlink" x="0px" y="0px"
	 width="800px" height="800px" viewBox="-100.5 699.5 800 800" enable-background="new -100.5 699.5 800 800" xml:space="preserve">
<path fill="#BBBBBB" d="M-71.625,715.636c0.878,0.878,1.536,1.87,1.973,2.973c0.434,1.107,0.652,2.233,0.652,3.392
	c0,1.155-0.218,2.286-0.653,3.393c-0.437,1.101-1.094,2.092-1.973,2.971c-0.88,0.878-1.874,1.54-2.982,1.977
	C-75.716,730.782-76.848,731-78,731c-1.155,0-2.285-0.218-3.394-0.658c-1.108-0.438-2.102-1.099-2.982-1.977
	c-0.875-0.879-1.536-1.87-1.973-2.971c-0.434-1.107-0.652-2.238-0.652-3.393c0-1.159,0.221-2.288,0.66-3.397
	c0.439-1.107,1.094-2.095,1.965-2.968c0.88-0.878,1.874-1.537,2.982-1.978c1.109-0.44,2.24-0.658,3.394-0.658
	c1.152,0,2.282,0.218,3.391,0.658C-73.5,714.099-72.506,714.758-71.625,715.636 M-73.432,719.275c0.173-0.174,0.173-0.348,0-0.531
	l-1.317-1.293c-0.189-0.188-0.365-0.188-0.531,0l-2.738,2.749l-2.5-2.492c-0.077-0.073-0.162-0.112-0.261-0.112
	c-0.097,0-0.188,0.04-0.271,0.112l-1.239,1.272c-0.189,0.176-0.189,0.349,0,0.531l2.469,2.466l-2.727,2.748
	c-0.076,0.078-0.115,0.162-0.115,0.26c0,0.099,0.04,0.189,0.115,0.269l1.294,1.309c0.076,0.075,0.162,0.115,0.264,0.117
	c0.104,0.003,0.191-0.035,0.267-0.117l2.75-2.736l2.467,2.49c0.075,0.072,0.163,0.11,0.267,0.11c0.101,0,0.189-0.038,0.265-0.11
	l1.273-1.273c0.172-0.174,0.172-0.35,0-0.53l-2.503-2.467L-73.432,719.275z"/>
<path fill="#FFFFFF" d="M192.375,715.636c0.878,0.877,1.535,1.87,1.972,2.974c0.435,1.106,0.653,2.233,0.653,3.392
	c0,1.155-0.218,2.287-0.653,3.393c-0.437,1.102-1.093,2.092-1.972,2.971c-0.881,0.878-1.874,1.54-2.982,1.977
	c-1.109,0.441-2.239,0.658-3.391,0.658c-1.155,0-2.285-0.217-3.394-0.658c-1.108-0.437-2.102-1.099-2.982-1.977
	c-0.875-0.879-1.535-1.869-1.972-2.971c-0.435-1.106-0.653-2.238-0.653-3.393c0-1.158,0.221-2.289,0.66-3.397
	c0.439-1.107,1.094-2.094,1.965-2.968c0.881-0.878,1.874-1.537,2.982-1.978c1.109-0.44,2.239-0.658,3.394-0.658
	c1.152,0,2.282,0.218,3.391,0.658C190.5,714.099,191.494,714.758,192.375,715.636 M190.568,719.275c0.173-0.174,0.173-0.348,0-0.531
	l-1.317-1.293c-0.189-0.188-0.365-0.188-0.531,0l-2.738,2.75l-2.5-2.493c-0.078-0.071-0.162-0.112-0.261-0.112
	c-0.097,0-0.188,0.041-0.271,0.112l-1.239,1.273c-0.189,0.176-0.189,0.349,0,0.53l2.469,2.468l-2.727,2.747
	c-0.075,0.078-0.115,0.162-0.115,0.26c0,0.1,0.04,0.189,0.115,0.27l1.295,1.309c0.074,0.074,0.162,0.115,0.264,0.116
	c0.104,0.002,0.19-0.035,0.267-0.116l2.75-2.737l2.466,2.49c0.075,0.072,0.163,0.109,0.267,0.109c0.1,0,0.188-0.037,0.265-0.109
	l1.273-1.273c0.172-0.174,0.172-0.35,0-0.53l-2.504-2.466L190.568,719.275z"/>
<rect x="-78" y="761" fill="#BBBBBB" width="11" height="2"/>
<rect x="-78" y="765" fill="#BBBBBB" width="11" height="2"/>
<polygon fill="#BBBBBB" points="-83.5,768 -87,764 -80,764 "/>
<rect x="-78" y="769" fill="#BBBBBB" width="11" height="2"/>
<rect x="186" y="761" fill="#FFFFFF" width="11" height="2"/>
<rect x="186" y="765" fill="#FFFFFF" width="11" height="2"/>
<polygon fill="#FFFFFF" points="180.5,768 177,764 184,764 "/>
<rect x="186" y="769" fill="#FFFFFF" width="11" height="2"/>
<g>
	<path fill="#BBBBBB" d="M-69.875,809.639c0.92,0.413,1.662,1.009,2.224,1.788c0.562,0.781,0.847,1.649,0.847,2.613
		c0,0.687-0.146,1.329-0.44,1.927c-0.291,0.596-0.688,1.122-1.196,1.575c-0.51,0.451-1.097,0.808-1.767,1.07
		c-0.668,0.258-1.388,0.389-2.16,0.389h-12.021c-0.628,0-1.225-0.107-1.787-0.323c-0.562-0.211-1.056-0.508-1.478-0.882
		c-0.419-0.378-0.75-0.816-0.989-1.32c-0.242-0.5-0.36-1.029-0.36-1.593c0-0.492,0.09-0.956,0.276-1.396
		c0.186-0.438,0.439-0.836,0.762-1.194c0.323-0.356,0.703-0.66,1.139-0.907c0.437-0.244,0.911-0.422,1.423-0.537
		c-0.261-0.288-0.461-0.603-0.604-0.947c-0.141-0.344-0.209-0.711-0.209-1.107c0-0.461,0.096-0.894,0.289-1.294
		c0.191-0.4,0.453-0.748,0.784-1.043c0.33-0.294,0.72-0.529,1.169-0.702c0.448-0.17,0.932-0.256,1.453-0.256
		c0.887,0,1.659,0.252,2.313,0.758c0.144-0.533,0.384-1.029,0.725-1.489c0.343-0.459,0.75-0.858,1.219-1.197
		c0.468-0.337,0.989-0.599,1.568-0.788c0.579-0.191,1.199-0.286,1.859-0.286c0.755,0,1.473,0.13,2.148,0.39
		c0.678,0.261,1.268,0.614,1.767,1.059c0.5,0.444,0.895,0.972,1.186,1.574c0.29,0.603,0.436,1.241,0.436,1.916
		c0,0.401-0.049,0.785-0.153,1.152C-69.552,808.957-69.695,809.309-69.875,809.639"/>
</g>
<g>
	<path fill="#FFFFFF" d="M194.026,809.639c0.92,0.413,1.662,1.009,2.225,1.788c0.562,0.781,0.847,1.649,0.847,2.613
		c0,0.687-0.146,1.329-0.44,1.927c-0.291,0.596-0.688,1.122-1.195,1.575c-0.511,0.451-1.097,0.808-1.767,1.07
		c-0.668,0.258-1.389,0.389-2.16,0.389h-12.021c-0.628,0-1.225-0.107-1.787-0.323c-0.562-0.211-1.056-0.508-1.478-0.882
		c-0.419-0.378-0.75-0.816-0.988-1.32c-0.242-0.5-0.36-1.029-0.36-1.593c0-0.492,0.091-0.956,0.276-1.396
		c0.186-0.438,0.439-0.836,0.762-1.194c0.323-0.356,0.703-0.66,1.14-0.907c0.437-0.244,0.91-0.422,1.423-0.537
		c-0.261-0.288-0.461-0.603-0.604-0.947c-0.141-0.344-0.209-0.711-0.209-1.107c0-0.461,0.096-0.894,0.289-1.294
		c0.191-0.4,0.452-0.748,0.783-1.043c0.33-0.294,0.721-0.529,1.17-0.702c0.448-0.17,0.932-0.256,1.452-0.256
		c0.888,0,1.659,0.252,2.313,0.758c0.144-0.533,0.384-1.029,0.725-1.489c0.344-0.459,0.75-0.858,1.219-1.197
		c0.469-0.337,0.989-0.599,1.568-0.788c0.579-0.191,1.199-0.286,1.859-0.286c0.755,0,1.473,0.13,2.148,0.39
		c0.678,0.261,1.268,0.614,1.767,1.059c0.499,0.444,0.895,0.972,1.186,1.574c0.29,0.603,0.437,1.241,0.437,1.916
		c0,0.401-0.05,0.785-0.153,1.152C194.35,808.957,194.207,809.309,194.026,809.639"/>
</g>
<path fill="#BBBBBB" d="M-75.712,853.55L-77,857.473l3.936-1.289l7.763-7.76l-2.635-2.646L-75.712,853.55z M-62.859,844.418
	l-0.535-0.538l-0.551-0.535c-0.207-0.23-0.463-0.346-0.774-0.346c-0.309,0-0.578,0.114-0.809,0.346l-1.1,1.119l2.635,2.636
	l1.133-1.097c0.221-0.23,0.331-0.496,0.329-0.792C-62.536,844.912-62.646,844.649-62.859,844.418z M-69,861.001h-18V849h13.012l2-2
	H-87c-1.104,0-2,0.896-2,2v12c0,1.104,0.896,2,2,2h18c1.104,0,2-0.896,2-2v-8.051l-2,2V861.001z"/>
<path fill="#BBBBBB" d="M-69,891h-18c-1.104,0-2,0.896-2,2v12c0,1.104,0.896,2,2,2h18c1.104,0,2-0.896,2-2v-12
	C-67,891.896-67.896,891-69,891z M-69,905h-13.012l-0.001,0.001H-87V893h13.012l0.001-0.001H-69V905z"/>
<rect x="-85" y="895" fill="#BBBBBB" width="14" height="2"/>
<rect x="-85" y="898" fill="#BBBBBB" width="14" height="2"/>
<rect x="-85" y="901" fill="#BBBBBB" width="14" height="2"/>
<path fill="#FFFFFF" d="M188.288,853.55L187,857.473l3.936-1.289l7.763-7.76l-2.635-2.646L188.288,853.55z M201.141,844.418
	l-0.534-0.538l-0.552-0.535c-0.207-0.23-0.463-0.346-0.773-0.346c-0.31,0-0.578,0.114-0.809,0.346l-1.1,1.119l2.635,2.636
	l1.134-1.097c0.222-0.23,0.33-0.496,0.328-0.792C201.464,844.912,201.355,844.649,201.141,844.418z M195,861.001h-18V849h13.012l2-2
	H177c-1.104,0-2,0.896-2,2v12c0,1.104,0.896,2,2,2h18c1.104,0,2-0.896,2-2v-8.051l-2,2V861.001z"/>
<path fill="#FFFFFF" d="M195,891h-18c-1.104,0-2,0.896-2,2v12c0,1.104,0.896,2,2,2h18c1.104,0,2-0.896,2-2v-12
	C197,891.896,196.104,891,195,891z M195,905h-13.012l-0.001,0.001H177V893h13.012l0.001-0.001H195V905z"/>
<rect x="179" y="895" fill="#FFFFFF" width="14" height="2"/>
<rect x="179" y="898" fill="#FFFFFF" width="14" height="2"/>
<rect x="179" y="901" fill="#FFFFFF" width="14" height="2"/>
<polygon fill="#BBBBBB" points="-70,940 -76,940 -76,934 -80,934 -80,940 -86,940 -86,944 -80,944 -80,950 -76,950 -76,944 -70,944 
	"/>
<polygon fill="#FFFFFF" points="194,940 188,940 188,934 184,934 184,940 178,940 178,944 184,944 184,950 188,950 188,944 194,944 
	"/>
<path fill="#BBBBBB" d="M-69.624,988.36c0.122,0.044,0.21,0.124,0.264,0.236c0.054,0.112,0.058,0.229,0.011,0.348
	c-0.404,1.208-1.014,2.257-1.827,3.142c-0.813,0.893-1.743,1.594-2.79,2.11c-1.044,0.514-2.175,0.825-3.39,0.928
	c-1.212,0.103-2.416-0.049-3.607-0.454c-1.03-0.359-1.953-0.867-2.766-1.535c-0.813-0.664-1.498-1.458-2.056-2.381l-2.348,1.147
	c-0.327,0.173-0.57,0.196-0.725,0.059c-0.159-0.131-0.175-0.378-0.054-0.738l1.717-5.002c0.077-0.255,0.229-0.425,0.449-0.517
	c0.219-0.093,0.446-0.107,0.677-0.046l5.014,1.719c0.343,0.122,0.519,0.276,0.525,0.463c0.009,0.189-0.152,0.371-0.479,0.544
	l-2.315,1.145c0.404,0.596,0.876,1.11,1.416,1.54c0.538,0.435,1.149,0.762,1.839,0.991c0.846,0.285,1.691,0.39,2.535,0.322
	c0.844-0.068,1.638-0.28,2.372-0.642c0.736-0.358,1.385-0.851,1.946-1.479c0.563-0.624,0.983-1.36,1.266-2.21
	c0.047-0.122,0.124-0.206,0.236-0.25c0.11-0.047,0.227-0.054,0.348-0.023L-69.624,988.36z M-67.872,980.101
	c0.33-0.173,0.573-0.196,0.729-0.058c0.157,0.131,0.173,0.369,0.052,0.712l-1.72,5.028c-0.075,0.252-0.224,0.425-0.446,0.514
	c-0.222,0.093-0.446,0.107-0.675,0.046l-5.016-1.715c-0.343-0.126-0.521-0.28-0.528-0.467c-0.007-0.187,0.145-0.369,0.458-0.542
	l2.315-1.147c-0.39-0.596-0.857-1.11-1.401-1.538c-0.549-0.435-1.157-0.764-1.83-0.99c-0.848-0.285-1.694-0.39-2.537-0.325
	c-0.844,0.07-1.633,0.285-2.369,0.642c-0.736,0.36-1.388,0.853-1.949,1.481c-0.561,0.624-0.981,1.36-1.264,2.208
	c-0.047,0.121-0.126,0.206-0.236,0.252c-0.11,0.044-0.227,0.052-0.348,0.023l-1.743-0.586c-0.122-0.044-0.208-0.124-0.262-0.233
	c-0.054-0.109-0.058-0.227-0.012-0.351c0.404-1.189,1.014-2.236,1.827-3.133s1.743-1.603,2.787-2.117
	c1.047-0.517,2.173-0.827,3.378-0.93c1.208-0.103,2.414,0.049,3.622,0.454c1.014,0.359,1.934,0.871,2.754,1.535
	c0.82,0.666,1.509,1.458,2.067,2.383L-67.872,980.101z"/>
<path fill="#FFFFFF" d="M194.376,988.36c0.122,0.044,0.21,0.124,0.264,0.236c0.054,0.112,0.058,0.229,0.011,0.348
	c-0.404,1.208-1.014,2.257-1.827,3.142c-0.813,0.893-1.743,1.594-2.79,2.11c-1.044,0.514-2.175,0.825-3.39,0.928
	c-1.212,0.103-2.416-0.049-3.607-0.454c-1.03-0.359-1.953-0.867-2.766-1.535c-0.813-0.664-1.498-1.458-2.056-2.381l-2.348,1.147
	c-0.327,0.173-0.57,0.196-0.725,0.059c-0.159-0.131-0.175-0.378-0.054-0.738l1.717-5.002c0.077-0.255,0.229-0.425,0.449-0.517
	c0.219-0.093,0.446-0.107,0.677-0.046l5.014,1.719c0.343,0.122,0.519,0.276,0.525,0.463c0.009,0.189-0.152,0.371-0.479,0.544
	l-2.315,1.145c0.404,0.596,0.876,1.11,1.416,1.54c0.538,0.435,1.149,0.762,1.839,0.991c0.846,0.285,1.691,0.39,2.535,0.322
	c0.844-0.068,1.638-0.28,2.372-0.642c0.736-0.358,1.385-0.851,1.946-1.479c0.563-0.624,0.983-1.36,1.266-2.21
	c0.047-0.122,0.124-0.206,0.236-0.25c0.11-0.047,0.227-0.054,0.348-0.023L194.376,988.36z M196.128,980.101
	c0.33-0.173,0.573-0.196,0.729-0.058c0.157,0.131,0.173,0.369,0.052,0.712l-1.72,5.028c-0.075,0.252-0.224,0.425-0.446,0.514
	c-0.222,0.093-0.446,0.107-0.675,0.046l-5.016-1.715c-0.343-0.126-0.521-0.28-0.528-0.467c-0.007-0.187,0.145-0.369,0.458-0.542
	l2.315-1.147c-0.39-0.596-0.857-1.11-1.401-1.538c-0.549-0.435-1.157-0.764-1.83-0.99c-0.848-0.285-1.694-0.39-2.537-0.325
	c-0.844,0.07-1.633,0.285-2.369,0.642c-0.736,0.36-1.388,0.853-1.949,1.481c-0.561,0.624-0.981,1.36-1.264,2.208
	c-0.047,0.121-0.126,0.206-0.236,0.252c-0.11,0.044-0.227,0.052-0.348,0.023l-1.743-0.586c-0.122-0.044-0.208-0.124-0.262-0.233
	c-0.054-0.109-0.058-0.227-0.012-0.351c0.404-1.189,1.014-2.236,1.827-3.133s1.743-1.603,2.787-2.117
	c1.047-0.517,2.173-0.827,3.378-0.93c1.208-0.103,2.414,0.049,3.622,0.454c1.014,0.359,1.934,0.871,2.754,1.535
	c0.82,0.666,1.509,1.458,2.067,2.383L196.128,980.101z"/>
</svg>
