<?xml version="1.0" encoding="utf-8"?>
<!-- Generator: Adobe Illustrator 13.0.0, SVG Export Plug-In . SVG Version: 6.00 Build 14948)  -->
<!DOCTYPE svg PUBLIC "-//W3C//DTD SVG 1.1//EN" "http://www.w3.org/Graphics/SVG/1.1/DTD/svg11.dtd">
<svg version="1.1" id="Layer_1" xmlns="http://www.w3.org/2000/svg" xmlns:xlink="http://www.w3.org/1999/xlink" x="0px" y="0px"
	 width="800px" height="800px" viewBox="-100.5 699.5 800 800" enable-background="new -100.5 699.5 800 800" xml:space="preserve">
<path fill="#BBBBBB" d="M-72.124,715.136c0.878,0.878,1.536,1.87,1.973,2.973c0.434,1.107,0.652,2.233,0.652,3.392
	c0,1.155-0.218,2.286-0.653,3.393c-0.437,1.101-1.094,2.092-1.973,2.971c-0.88,0.878-1.874,1.54-2.982,1.977
	c-1.108,0.44-2.239,0.658-3.391,0.658c-1.155,0-2.285-0.218-3.394-0.658c-1.108-0.438-2.102-1.099-2.982-1.977
	c-0.875-0.879-1.536-1.87-1.973-2.971c-0.434-1.107-0.652-2.238-0.652-3.393c0-1.159,0.221-2.288,0.66-3.397
	c0.439-1.107,1.094-2.095,1.965-2.968c0.88-0.878,1.874-1.537,2.982-1.978c1.109-0.44,2.24-0.658,3.394-0.658
	c1.152,0,2.282,0.218,3.391,0.658C-73.998,713.599-73.005,714.258-72.124,715.136 M-73.93,718.775c0.173-0.174,0.173-0.348,0-0.531
	l-1.317-1.293c-0.189-0.188-0.365-0.188-0.531,0l-2.738,2.749l-2.5-2.492c-0.077-0.073-0.162-0.112-0.261-0.112
	c-0.097,0-0.188,0.04-0.271,0.112l-1.239,1.272c-0.189,0.176-0.189,0.349,0,0.531l2.469,2.466l-2.727,2.748
	c-0.076,0.078-0.115,0.162-0.115,0.26c0,0.099,0.04,0.189,0.115,0.269l1.294,1.309c0.076,0.075,0.162,0.115,0.264,0.117
	c0.104,0.003,0.191-0.035,0.267-0.117l2.75-2.736l2.467,2.49c0.075,0.072,0.163,0.11,0.267,0.11c0.101,0,0.189-0.038,0.265-0.11
	l1.273-1.273c0.172-0.174,0.172-0.35,0-0.53l-2.503-2.467L-73.93,718.775z"/>
<path fill="#FFFFFF" d="M191.876,715.136c0.878,0.877,1.535,1.87,1.972,2.974c0.435,1.106,0.653,2.233,0.653,3.392
	c0,1.155-0.218,2.287-0.653,3.393c-0.437,1.102-1.093,2.092-1.972,2.971c-0.881,0.878-1.874,1.54-2.982,1.977
	c-1.109,0.441-2.239,0.658-3.391,0.658c-1.155,0-2.285-0.217-3.394-0.658c-1.108-0.437-2.102-1.099-2.982-1.977
	c-0.875-0.879-1.535-1.869-1.972-2.971c-0.435-1.106-0.653-2.238-0.653-3.393c0-1.158,0.221-2.289,0.66-3.397
	c0.439-1.107,1.094-2.094,1.965-2.968c0.881-0.878,1.874-1.537,2.982-1.978c1.109-0.44,2.239-0.658,3.394-0.658
	c1.152,0,2.282,0.218,3.391,0.658C190.002,713.599,190.995,714.258,191.876,715.136 M190.07,718.775
	c0.173-0.174,0.173-0.348,0-0.531l-1.317-1.293c-0.189-0.188-0.365-0.188-0.531,0l-2.738,2.75l-2.5-2.493
	c-0.078-0.071-0.162-0.112-0.261-0.112c-0.097,0-0.188,0.041-0.271,0.112l-1.239,1.273c-0.189,0.176-0.189,0.349,0,0.53l2.469,2.468
	l-2.727,2.747c-0.075,0.078-0.115,0.162-0.115,0.26c0,0.1,0.04,0.189,0.115,0.27l1.295,1.309c0.074,0.074,0.162,0.115,0.264,0.116
	c0.104,0.002,0.19-0.035,0.267-0.116l2.75-2.737l2.466,2.49c0.075,0.072,0.163,0.109,0.267,0.109c0.1,0,0.188-0.037,0.265-0.109
	l1.273-1.273c0.172-0.174,0.172-0.35,0-0.53l-2.504-2.466L190.07,718.775z"/>
<rect x="-78.499" y="760.5" fill="#BBBBBB" width="11" height="2"/>
<rect x="-78.499" y="764.5" fill="#BBBBBB" width="11" height="2"/>
<polygon fill="#BBBBBB" points="-83.999,767.5 -87.499,763.5 -80.499,763.5 "/>
<rect x="-78.499" y="768.5" fill="#BBBBBB" width="11" height="2"/>
<rect x="185.501" y="760.5" fill="#FFFFFF" width="11" height="2"/>
<rect x="185.501" y="764.5" fill="#FFFFFF" width="11" height="2"/>
<polygon fill="#FFFFFF" points="180.001,767.5 176.501,763.5 183.501,763.5 "/>
<rect x="185.501" y="768.5" fill="#FFFFFF" width="11" height="2"/>
<g>
	<path fill="#BBBBBB" d="M-70.373,809.139c0.92,0.413,1.662,1.009,2.224,1.788c0.562,0.781,0.847,1.649,0.847,2.613
		c0,0.687-0.146,1.329-0.44,1.927c-0.291,0.596-0.688,1.122-1.196,1.575c-0.51,0.451-1.097,0.808-1.767,1.07
		c-0.668,0.258-1.388,0.389-2.16,0.389h-12.021c-0.628,0-1.225-0.107-1.787-0.323c-0.562-0.211-1.056-0.508-1.478-0.882
		c-0.419-0.378-0.75-0.816-0.989-1.32c-0.242-0.5-0.36-1.029-0.36-1.593c0-0.492,0.09-0.956,0.276-1.396
		c0.186-0.438,0.439-0.836,0.762-1.194c0.323-0.356,0.703-0.66,1.139-0.907c0.437-0.244,0.911-0.422,1.423-0.537
		c-0.261-0.288-0.461-0.603-0.604-0.947c-0.141-0.344-0.209-0.711-0.209-1.107c0-0.461,0.096-0.894,0.289-1.294
		c0.191-0.4,0.453-0.748,0.784-1.043c0.33-0.294,0.72-0.529,1.169-0.702c0.448-0.17,0.932-0.256,1.453-0.256
		c0.887,0,1.659,0.252,2.313,0.758c0.144-0.533,0.384-1.029,0.725-1.489c0.343-0.459,0.75-0.858,1.219-1.197
		c0.468-0.337,0.989-0.599,1.568-0.788c0.579-0.191,1.199-0.286,1.859-0.286c0.755,0,1.473,0.13,2.148,0.39
		c0.678,0.261,1.268,0.614,1.767,1.059c0.5,0.444,0.895,0.972,1.186,1.574c0.29,0.603,0.436,1.241,0.436,1.916
		c0,0.401-0.049,0.785-0.153,1.152C-70.051,808.457-70.194,808.809-70.373,809.139"/>
</g>
<g>
	<path fill="#FFFFFF" d="M193.528,809.139c0.92,0.413,1.662,1.009,2.225,1.788c0.562,0.781,0.847,1.649,0.847,2.613
		c0,0.687-0.146,1.329-0.44,1.927c-0.291,0.596-0.688,1.122-1.195,1.575c-0.511,0.451-1.097,0.808-1.767,1.07
		c-0.668,0.258-1.389,0.389-2.16,0.389h-12.021c-0.628,0-1.225-0.107-1.787-0.323c-0.562-0.211-1.056-0.508-1.478-0.882
		c-0.419-0.378-0.75-0.816-0.988-1.32c-0.242-0.5-0.36-1.029-0.36-1.593c0-0.492,0.091-0.956,0.276-1.396
		c0.186-0.438,0.439-0.836,0.762-1.194c0.323-0.356,0.703-0.66,1.14-0.907c0.437-0.244,0.91-0.422,1.423-0.537
		c-0.261-0.288-0.461-0.603-0.604-0.947c-0.141-0.344-0.209-0.711-0.209-1.107c0-0.461,0.096-0.894,0.289-1.294
		c0.191-0.4,0.452-0.748,0.783-1.043c0.33-0.294,0.721-0.529,1.17-0.702c0.448-0.17,0.932-0.256,1.452-0.256
		c0.888,0,1.659,0.252,2.313,0.758c0.144-0.533,0.384-1.029,0.725-1.489c0.344-0.459,0.75-0.858,1.219-1.197
		c0.469-0.337,0.989-0.599,1.568-0.788c0.579-0.191,1.199-0.286,1.859-0.286c0.755,0,1.473,0.13,2.148,0.39
		c0.678,0.261,1.268,0.614,1.767,1.059c0.499,0.444,0.895,0.972,1.186,1.574c0.29,0.603,0.437,1.241,0.437,1.916
		c0,0.401-0.05,0.785-0.153,1.152C193.851,808.457,193.708,808.809,193.528,809.139"/>
</g>
<path fill="#BBBBBB" d="M-76.211,853.05l-1.288,3.923l3.936-1.289l7.763-7.76l-2.635-2.646L-76.211,853.05z M-63.358,843.918
	l-0.535-0.538l-0.551-0.535c-0.207-0.23-0.463-0.346-0.774-0.346c-0.309,0-0.578,0.114-0.809,0.346l-1.1,1.119l2.635,2.636
	l1.133-1.097c0.221-0.23,0.331-0.496,0.329-0.792C-63.034,844.412-63.144,844.149-63.358,843.918z M-69.499,860.501h-18V848.5
	h13.012l2-2h-15.012c-1.104,0-2,0.896-2,2v12c0,1.104,0.896,2,2,2h18c1.104,0,2-0.896,2-2v-8.051l-2,2V860.501z"/>
<path fill="#BBBBBB" d="M-69.499,890.5h-18c-1.104,0-2,0.896-2,2v12c0,1.104,0.896,2,2,2h18c1.104,0,2-0.896,2-2v-12
	C-67.499,891.396-68.395,890.5-69.499,890.5z M-69.499,904.5h-13.012l-0.001,0.001h-4.987V892.5h13.012l0.001-0.001h4.987V904.5z"/>
<rect x="-85.499" y="894.5" fill="#BBBBBB" width="14" height="2"/>
<rect x="-85.499" y="897.5" fill="#BBBBBB" width="14" height="2"/>
<rect x="-85.499" y="900.5" fill="#BBBBBB" width="14" height="2"/>
<path fill="#FFFFFF" d="M187.789,853.05l-1.288,3.923l3.936-1.289l7.763-7.76l-2.635-2.646L187.789,853.05z M200.643,843.918
	l-0.534-0.538l-0.552-0.535c-0.207-0.23-0.463-0.346-0.773-0.346c-0.31,0-0.578,0.114-0.809,0.346l-1.1,1.119l2.635,2.636
	l1.134-1.097c0.222-0.23,0.33-0.496,0.328-0.792C200.966,844.412,200.856,844.149,200.643,843.918z M194.501,860.501h-18V848.5
	h13.012l2-2h-15.012c-1.104,0-2,0.896-2,2v12c0,1.104,0.896,2,2,2h18c1.104,0,2-0.896,2-2v-8.051l-2,2V860.501z"/>
<path fill="#FFFFFF" d="M194.501,890.5h-18c-1.104,0-2,0.896-2,2v12c0,1.104,0.896,2,2,2h18c1.104,0,2-0.896,2-2v-12
	C196.501,891.396,195.605,890.5,194.501,890.5z M194.501,904.5h-13.012l-0.001,0.001h-4.987V892.5h13.012l0.001-0.001h4.987V904.5z"
	/>
<rect x="178.501" y="894.5" fill="#FFFFFF" width="14" height="2"/>
<rect x="178.501" y="897.5" fill="#FFFFFF" width="14" height="2"/>
<rect x="178.501" y="900.5" fill="#FFFFFF" width="14" height="2"/>
<polygon fill="#BBBBBB" points="-70.499,939.5 -76.499,939.5 -76.499,933.5 -80.499,933.5 -80.499,939.5 -86.499,939.5 
	-86.499,943.5 -80.499,943.5 -80.499,949.5 -76.499,949.5 -76.499,943.5 -70.499,943.5 "/>
<polygon fill="#FFFFFF" points="193.501,939.5 187.501,939.5 187.501,933.5 183.501,933.5 183.501,939.5 177.501,939.5 
	177.501,943.5 183.501,943.5 183.501,949.5 187.501,949.5 187.501,943.5 193.501,943.5 "/>
<path fill="#BBBBBB" d="M-70.122,987.86c0.122,0.044,0.21,0.124,0.264,0.236c0.054,0.112,0.058,0.229,0.011,0.348
	c-0.404,1.208-1.014,2.257-1.827,3.142c-0.813,0.893-1.743,1.594-2.79,2.11c-1.044,0.514-2.175,0.825-3.39,0.928
	c-1.212,0.103-2.416-0.049-3.607-0.454c-1.03-0.359-1.953-0.867-2.766-1.535c-0.813-0.664-1.498-1.458-2.056-2.381l-2.348,1.147
	c-0.327,0.173-0.57,0.196-0.725,0.059c-0.159-0.131-0.175-0.378-0.054-0.738l1.717-5.002c0.077-0.255,0.229-0.425,0.449-0.517
	c0.219-0.093,0.446-0.107,0.677-0.046l5.014,1.719c0.343,0.122,0.519,0.276,0.525,0.463c0.009,0.189-0.152,0.371-0.479,0.544
	l-2.315,1.145c0.404,0.596,0.876,1.11,1.416,1.54c0.538,0.435,1.149,0.762,1.839,0.991c0.846,0.285,1.691,0.39,2.535,0.322
	c0.844-0.068,1.638-0.28,2.372-0.642c0.736-0.358,1.385-0.851,1.946-1.479c0.563-0.624,0.983-1.36,1.266-2.21
	c0.047-0.122,0.124-0.206,0.236-0.25c0.11-0.047,0.227-0.054,0.348-0.023L-70.122,987.86z M-68.37,979.601
	c0.33-0.173,0.573-0.196,0.729-0.058c0.157,0.131,0.173,0.369,0.052,0.712l-1.72,5.028c-0.075,0.252-0.224,0.425-0.446,0.514
	c-0.222,0.093-0.446,0.107-0.675,0.046l-5.016-1.715c-0.343-0.126-0.521-0.28-0.528-0.467c-0.007-0.187,0.145-0.369,0.458-0.542
	l2.315-1.147c-0.39-0.596-0.857-1.11-1.401-1.538c-0.549-0.435-1.157-0.764-1.83-0.99c-0.848-0.285-1.694-0.39-2.537-0.325
	c-0.844,0.07-1.633,0.285-2.369,0.642c-0.736,0.36-1.388,0.853-1.949,1.481c-0.561,0.624-0.981,1.36-1.264,2.208
	c-0.047,0.121-0.126,0.206-0.236,0.252c-0.11,0.044-0.227,0.052-0.348,0.023l-1.743-0.586c-0.122-0.044-0.208-0.124-0.262-0.233
	c-0.054-0.109-0.058-0.227-0.012-0.351c0.404-1.189,1.014-2.236,1.827-3.133s1.743-1.603,2.787-2.117
	c1.047-0.517,2.173-0.827,3.378-0.93c1.208-0.103,2.414,0.049,3.622,0.454c1.014,0.359,1.934,0.871,2.754,1.535
	c0.82,0.666,1.509,1.458,2.067,2.383L-68.37,979.601z"/>
<path fill="#FFFFFF" d="M193.878,987.86c0.122,0.044,0.21,0.124,0.264,0.236c0.054,0.112,0.058,0.229,0.011,0.348
	c-0.404,1.208-1.014,2.257-1.827,3.142c-0.813,0.893-1.743,1.594-2.79,2.11c-1.044,0.514-2.175,0.825-3.39,0.928
	c-1.212,0.103-2.416-0.049-3.607-0.454c-1.03-0.359-1.953-0.867-2.766-1.535c-0.813-0.664-1.498-1.458-2.056-2.381l-2.348,1.147
	c-0.327,0.173-0.57,0.196-0.725,0.059c-0.159-0.131-0.175-0.378-0.054-0.738l1.717-5.002c0.077-0.255,0.229-0.425,0.449-0.517
	c0.219-0.093,0.446-0.107,0.677-0.046l5.014,1.719c0.343,0.122,0.519,0.276,0.525,0.463c0.009,0.189-0.152,0.371-0.479,0.544
	l-2.315,1.145c0.404,0.596,0.876,1.11,1.416,1.54c0.538,0.435,1.149,0.762,1.839,0.991c0.846,0.285,1.691,0.39,2.535,0.322
	c0.844-0.068,1.638-0.28,2.372-0.642c0.736-0.358,1.385-0.851,1.946-1.479c0.563-0.624,0.983-1.36,1.266-2.21
	c0.047-0.122,0.124-0.206,0.236-0.25c0.11-0.047,0.227-0.054,0.348-0.023L193.878,987.86z M195.63,979.601
	c0.33-0.173,0.573-0.196,0.729-0.058c0.157,0.131,0.173,0.369,0.052,0.712l-1.72,5.028c-0.075,0.252-0.224,0.425-0.446,0.514
	c-0.222,0.093-0.446,0.107-0.675,0.046l-5.016-1.715c-0.343-0.126-0.521-0.28-0.528-0.467c-0.007-0.187,0.145-0.369,0.458-0.542
	l2.315-1.147c-0.39-0.596-0.857-1.11-1.401-1.538c-0.549-0.435-1.157-0.764-1.83-0.99c-0.848-0.285-1.694-0.39-2.537-0.325
	c-0.844,0.07-1.633,0.285-2.369,0.642c-0.736,0.36-1.388,0.853-1.949,1.481c-0.561,0.624-0.981,1.36-1.264,2.208
	c-0.047,0.121-0.126,0.206-0.236,0.252c-0.11,0.044-0.227,0.052-0.348,0.023l-1.743-0.586c-0.122-0.044-0.208-0.124-0.262-0.233
	c-0.054-0.109-0.058-0.227-0.012-0.351c0.404-1.189,1.014-2.236,1.827-3.133s1.743-1.603,2.787-2.117
	c1.047-0.517,2.173-0.827,3.378-0.93c1.208-0.103,2.414,0.049,3.622,0.454c1.014,0.359,1.934,0.871,2.754,1.535
	c0.82,0.666,1.509,1.458,2.067,2.383L195.63,979.601z"/>
<path fill="#BBBBBB" d="M-77.409,1037.5c-0.296,0-0.554-0.108-0.769-0.322c-0.216-0.213-0.323-0.464-0.323-0.751v-13.84
	c0-0.295,0.106-0.552,0.323-0.766c0.215-0.213,0.472-0.321,0.769-0.321h8.82c0.295,0,0.549,0.108,0.766,0.321
	c0.215,0.213,0.323,0.471,0.323,0.766v13.84c0,0.295-0.108,0.549-0.323,0.76c-0.216,0.21-0.471,0.313-0.766,0.313H-77.409z"/>
<path fill="#BBBBBB" d="M-81.639,1021.524c0.317,0,0.58,0.108,0.795,0.321c0.216,0.213,0.32,0.464,0.32,0.751v1.648
	c0,0.315-0.104,0.579-0.32,0.795c-0.215,0.216-0.478,0.321-0.795,0.321l-6.77,0.139c-0.296,0-0.554-0.105-0.769-0.321
	c-0.216-0.216-0.323-0.479-0.323-0.795v-1.648c0-0.295,0.106-0.549,0.323-0.76c0.215-0.208,0.472-0.312,0.769-0.312
	L-81.639,1021.524z"/>
<path fill="#BBBBBB" d="M-81.639,1033.524c0.317,0,0.58,0.108,0.795,0.321c0.216,0.213,0.32,0.464,0.32,0.751v1.648
	c0,0.315-0.104,0.579-0.32,0.795c-0.215,0.216-0.478,0.321-0.795,0.321l-6.77,0.139c-0.296,0-0.554-0.105-0.769-0.321
	c-0.216-0.216-0.323-0.479-0.323-0.795v-1.648c0-0.295,0.106-0.549,0.323-0.76c0.215-0.208,0.472-0.312,0.769-0.312
	L-81.639,1033.524z"/>
<path fill="#BBBBBB" d="M-81.639,1027.524c0.317,0,0.58,0.108,0.795,0.321c0.216,0.213,0.32,0.464,0.32,0.751v1.648
	c0,0.315-0.104,0.579-0.32,0.795c-0.215,0.216-0.478,0.321-0.795,0.321l-6.77,0.139c-0.296,0-0.554-0.105-0.769-0.321
	c-0.216-0.216-0.323-0.479-0.323-0.795v-1.648c0-0.295,0.106-0.549,0.323-0.76c0.215-0.208,0.472-0.312,0.769-0.312
	L-81.639,1027.524z"/>
<path fill="#FFFFFF" d="M186.591,1037.5c-0.296,0-0.554-0.108-0.769-0.322c-0.216-0.213-0.323-0.464-0.323-0.751v-13.84
	c0-0.295,0.106-0.552,0.323-0.766c0.215-0.213,0.472-0.321,0.769-0.321h8.82c0.295,0,0.549,0.108,0.766,0.321
	c0.215,0.213,0.323,0.471,0.323,0.766v13.84c0,0.295-0.108,0.549-0.323,0.76c-0.216,0.21-0.471,0.313-0.766,0.313H186.591z"/>
<path fill="#FFFFFF" d="M182.361,1021.524c0.317,0,0.58,0.108,0.795,0.321c0.216,0.213,0.32,0.464,0.32,0.751v1.648
	c0,0.315-0.104,0.579-0.32,0.795c-0.215,0.216-0.478,0.321-0.795,0.321l-6.77,0.139c-0.296,0-0.554-0.105-0.769-0.321
	c-0.216-0.216-0.323-0.479-0.323-0.795v-1.648c0-0.295,0.106-0.549,0.323-0.76c0.215-0.208,0.472-0.312,0.769-0.312
	L182.361,1021.524z"/>
<path fill="#FFFFFF" d="M182.361,1033.524c0.317,0,0.58,0.108,0.795,0.321c0.216,0.213,0.32,0.464,0.32,0.751v1.648
	c0,0.315-0.104,0.579-0.32,0.795c-0.215,0.216-0.478,0.321-0.795,0.321l-6.77,0.139c-0.296,0-0.554-0.105-0.769-0.321
	c-0.216-0.216-0.323-0.479-0.323-0.795v-1.648c0-0.295,0.106-0.549,0.323-0.76c0.215-0.208,0.472-0.312,0.769-0.312
	L182.361,1033.524z"/>
<path fill="#FFFFFF" d="M182.361,1027.524c0.317,0,0.58,0.108,0.795,0.321c0.216,0.213,0.32,0.464,0.32,0.751v1.648
	c0,0.315-0.104,0.579-0.32,0.795c-0.215,0.216-0.478,0.321-0.795,0.321l-6.77,0.139c-0.296,0-0.554-0.105-0.769-0.321
	c-0.216-0.216-0.323-0.479-0.323-0.795v-1.648c0-0.295,0.106-0.549,0.323-0.76c0.215-0.208,0.472-0.312,0.769-0.312
	L182.361,1027.524z"/>
<g>
	<g>
		<path fill="#BBBBBB" d="M-69.499,1065.5h-18c-1.104,0-2,0.896-2,2v12c0,1.104,0.896,2,2,2h18c1.104,0,2-0.896,2-2v-12
			C-67.499,1066.396-68.395,1065.5-69.499,1065.5z M-80.537,1079.5H-85.5v-2h4.963V1079.5z M-80.537,1076.5H-86.5v-2h5.963V1076.5z
			 M-80.537,1073.5h-4v-2h4V1073.5z M-71.574,1079.5h-6.963v-2h6.963V1079.5z M-78.537,1076.5v-2h5.963v2H-78.537z M-70.574,1073.5
			h-7.963v-2h7.963V1073.5z M-69.539,1069.469H-87.5v-2h17.961V1069.469z"/>
	</g>
</g>
<g>
	<g>
		<path fill="#FFFFFF" d="M194.5,1065.5h-18c-1.104,0-2,0.896-2,2v12c0,1.104,0.896,2,2,2h18c1.104,0,2-0.896,2-2v-12
			C196.5,1066.396,195.604,1065.5,194.5,1065.5z M183.462,1079.5h-4.963v-2h4.963V1079.5z M183.462,1076.5h-5.963v-2h5.963V1076.5z
			 M183.462,1073.5h-4v-2h4V1073.5z M192.425,1079.5h-6.963v-2h6.963V1079.5z M185.462,1076.5v-2h5.963v2H185.462z M193.425,1073.5
			h-7.963v-2h7.963V1073.5z M194.46,1069.469h-17.961v-2h17.961V1069.469z"/>
	</g>
</g>
</svg>
